<?xml version="1.0" encoding="utf-8"?>
<!-- Generator: Adobe Illustrator 24.1.2, SVG Export Plug-In . SVG Version: 6.00 Build 0)  -->
<svg version="1.1" id="Warstwa_1" xmlns="http://www.w3.org/2000/svg" xmlns:xlink="http://www.w3.org/1999/xlink" x="0px" y="0px"
	 viewBox="0 0 595.3 841.9" style="enable-background:new 0 0 595.3 841.9;" xml:space="preserve">
<style type="text/css">
	.st0{fill:#9BABFD;}
	.st1{fill:#738AFC;}
	.st2{font-family:'Roboto-Thin';}
	.st3{font-size:107px;}
	.st4{fill:#4B68FB;}
	.st5{font-family:'Roboto-Regular';}
	.st6{font-size:100px;}
	.st7{fill:none;stroke:#4B68FB;stroke-width:11;stroke-miterlimit:10;}
	.st8{fill:#CCCCCC;}
	.st9{fill:none;stroke:#738AFC;stroke-width:3;stroke-miterlimit:10;}
	.st10{fill:none;stroke:#4B68FB;stroke-width:9;stroke-miterlimit:10;}
</style>
<path class="st0" d="M466.4,616.9H164.2c-47.8,0-86.5-38.7-86.5-86.5V228.3c0-47.8,38.7-86.5,86.5-86.5h302.2
	c47.8,0,86.5,38.7,86.5,86.5v302.2C552.8,578.2,514.1,616.9,466.4,616.9z"/>
<text transform="matrix(1 0 0 1 114.9088 423.315)" class="st1 st2 st3">Lift</text>
<text transform="matrix(1 0 0 1 257.0288 443.315)" class="st4 st5 st6">Crane</text>
<polyline class="st7" points="40.6,443.3 77.9,361 114.9,442.6 "/>
<polyline class="st7" points="515.7,361 553,443.3 590,361.7 "/>
<path class="st8" d="M77.7,366.9"/>
<path class="st9" d="M239.8,402.1V298.5c0-37.3,35.2-67.5,78.6-67.5h137.3"/>
<path class="st7" d="M452.2,616.9H315.3H164.2c-47.8,0-86.5-38.7-86.5-86.5V361"/>
<path class="st7" d="M178.4,141.8h136.9h151.1c47.8,0,86.5,38.7,86.5,86.5v169.4l0.2,45.6"/>
<path class="st10" d="M452.2,413.5V495c0,44.7-34.6,80.9-77.3,80.9H239.8"/>
</svg>
